<svg height="512" width="512" xmlns="http://www.w3.org/2000/svg"><path d="M496.63 482h-17.16V344.14a180.28 180.28 0 0032.47-103.4 180.7 180.7 0 00-51.96-126.9c-73.66-74.73-190.23-70.17-258.69 0a183.77 183.77 0 00-4.78 5.04C149.41 82.46 84.33 68.1 25.75 83.31a15 15 0 00-11.31 14.53v384.2a14.99 14.99 0 00.62 29.96h481.57a15 15 0 000-30zm-402.8 0H44.45V359.14h49.4zm0-152.86H44.45V109.93a168.2 168.2 0 0149.4-1.48zm353.82 7.41l-80.8-80.8h114.34a150.61 150.61 0 01-33.54 80.8zm33.54-110.8H366.85l80.8-80.8a150.61 150.61 0 0133.54 80.8zM345.63 90.19a150.62 150.62 0 0180.8 33.54l-80.8 80.8zm0 186.77l80.8 80.8a150.61 150.61 0 01-80.8 33.54zm-30-186.77v114.34l-80.8-80.8a150.62 150.62 0 0180.8-33.54zm-102.01 54.75l80.8 80.8H180.08a150.62 150.62 0 0133.54-80.8zm102.01 132.02V391.3a150.62 150.62 0 01-80.8-33.54zm-191.8-162.19a174.44 174.44 0 0154.4 27.9 180.23 180.23 0 00-28.9 98.08c0 32.07 8.39 62.22 23.06 88.39h-48.55zM185.39 482h-61.54V359.14h61.54zm-5.3-226.25h114.34l-80.8 80.8a150.61 150.61 0 01-33.54-80.8zM276.92 482h-61.54V380.6a181.12 181.12 0 0061.54 33.32zm91.54 0h-61.54v-61.5a182.2 182.2 0 0023.71 1.55c12.97 0 25.62-1.38 37.83-3.98zm81.01 0h-51.01v-73.13a181.61 181.61 0 0051.01-31.32z"/><ellipse cx="473.92" cy="58.68" rx="15" ry="14.95"/><ellipse cx="15.06" cy="14.95" rx="15" ry="14.95"/><ellipse cx="200.38" cy="50.63" rx="15" ry="14.95"/></svg>