<svg viewBox="0 0 512 512" xmlns="http://www.w3.org/2000/svg"><style>.st0{fill:#333}</style><g id="Layer_2"><path class="st0" d="M141.91 265.53c36.42 0 66.04-29.63 66.04-66.04s-29.63-66.04-66.04-66.04-66.04 29.63-66.04 66.04 29.62 66.04 66.04 66.04zm0-100.08c18.77 0 34.04 15.27 34.04 34.04s-15.27 34.04-34.04 34.04-34.04-15.27-34.04-34.04 15.27-34.04 34.04-34.04z"/><path class="st0" d="M43.5 462.81H81c7.6 0 14.15-5.34 15.67-12.79l.72-3.54c6.63-32.37 35.42-55.86 68.46-55.86h180.29c33.04 0 61.83 23.49 68.46 55.86l.72 3.53c1.52 7.44 8.08 12.79 15.67 12.79h37.5c8.84 0 16-7.16 16-16V296.5c0-.11-.01-.23-.02-.34 0-.11.01-.22 0-.33l-3.1-74.06c-1.13-27.06-19.29-50.58-45.19-58.53l-135.22-41.47c-19.62-6.02-40.33-2.47-56.83 9.73-16.5 12.2-25.96 30.96-25.96 51.48v97.52H59.5V65.19c0-8.84-7.16-16-16-16s-16 7.16-16 16v381.62c0 8.84 7.16 16 16 16zm409-32h-8.91c-5.87-19.23-17.39-36.46-33.04-49.24-18.13-14.79-41.01-22.94-64.41-22.94H165.86c-23.4 0-46.28 8.15-64.41 22.94-15.66 12.78-27.17 30.01-33.04 49.24H59.5V312.5h393v118.31zM250.19 182.99c0-10.26 4.73-19.65 12.98-25.75 8.25-6.1 18.61-7.87 28.42-4.86l135.22 41.47c12.95 3.97 22.04 15.74 22.6 29.27l2.4 57.39H250.19v-97.52z"/></g></svg>