<svg height="1024" width="1024" xmlns="http://www.w3.org/2000/svg"><path d="M983.766 312.727c-25.785-60.972-62.694-115.728-109.705-162.744-47.011-47.017-101.762-83.934-162.732-109.726C648.194 13.548 581.14.004 512 0c-69.104 0-136.155 13.54-199.289 40.243-60.969 25.787-115.721 62.699-162.735 109.71-47.014 47.011-83.929 101.761-109.72 162.728C13.548 375.814.004 442.865 0 511.97c-.004 69.109 13.533 136.165 40.234 199.304 25.785 60.973 62.696 115.728 109.707 162.743 47.011 47.018 101.762 83.935 162.732 109.727 63.136 26.708 130.19 40.253 199.323 40.257h.009c69.104 0 136.153-13.54 199.288-40.243 60.969-25.787 115.72-62.699 162.733-109.709 47.013-47.01 83.929-101.76 109.72-162.728 26.708-63.134 40.251-130.186 40.255-199.29.003-69.11-13.534-136.165-40.235-199.304zM512.004 976.328h-.03c-124.026-.007-240.627-48.313-328.323-136.019-87.694-87.705-135.986-204.31-135.979-328.336.015-256.016 208.312-464.3 464.356-464.3 124.026.007 240.626 48.312 328.32 136.017 87.695 87.706 135.986 204.311 135.979 328.337-.014 256.016-208.309 464.301-464.323 464.301z" fill="#262626"/><path d="M625.91 299.833c-58.021-1.709-116.071-2.112-174.105-1.209-164.298 3.127-233.243.604-241.519 126.994-1.786 53.471-1.916 106.815-.387 160.269 8.198 137.809 52.407 135.276 241.907 139.573 52.921.824 105.855.561 158.77-.788 133.299-3.671 195.297-.43 203.528-138.859 1.525-53.427 1.396-106.749-.39-160.193-8.244-126.902-79.731-122.708-187.804-125.787zm-175.5 291.012c-.321-57.301-.292-114.636.087-171.931 53.289 28.274 107.172 57.39 160.931 85.99-53.713 28.507-107.625 57.607-161.018 85.941z" fill="#262626"/></svg>