<svg viewBox="0 0 512 512" xmlns="http://www.w3.org/2000/svg"><path d="M456.59 74.368a86.939 86.939 0 00-132.221 112.006l56.833 79.562a17.1 17.1 0 0027.832 0l56.833-79.563a86.666 86.666 0 00-9.277-112.005zm-61.472 89.977a28.5 28.5 0 1128.5-28.5 28.501 28.501 0 01-28.5 28.5zm0 150.557A17.096 17.096 0 00378.02 332v36.46a60.442 60.442 0 11-120.884 0V213.38a94.638 94.638 0 10-189.276 0V294a17.098 17.098 0 0034.196 0v-80.62a60.442 60.442 0 11120.884 0v155.08a94.638 94.638 0 00189.276 0V332a17.096 17.096 0 00-17.098-17.098zm-310.16 38A55.098 55.098 0 10140.056 408a55.158 55.158 0 00-55.098-55.098z"/></svg>